<?xml version="1.0" encoding="UTF-8"?>
<svg id="a" data-name="Layer 1" xmlns="http://www.w3.org/2000/svg" viewBox="0 0 110.33 27.85">
  <defs>
    <style>
      .b {
        fill: #221e1f;
      }
    </style>
  </defs>
  <path class="b" d="M.03,10.57V.14h2.14v4.06h2.4V.14h2.14v10.43h-2.14v-4.44h-2.4v4.44H.03Z"/>
  <path class="b" d="M14.8,10.71c-1.06,0-1.89-.29-2.51-.86-.61-.57-.92-1.35-.92-2.34V.14h2.14v7.35c0,.44.11.77.33,1.01.22.23.54.35.95.35s.71-.12.94-.35c.23-.23.34-.57.34-1.01V.14h2.14v7.37c0,.98-.31,1.76-.92,2.33-.61.58-1.45.86-2.51.86Z"/>
  <path class="b" d="M22.94,10.57V.14h6.71v2h-4.6v2.31h4.23v2h-4.2v4.11h-2.14Z"/>
  <path class="b" d="M37.67,10.71c-.73,0-1.37-.13-1.92-.39s-.97-.62-1.27-1.09c-.3-.47-.45-1.03-.45-1.66h2.09c0,.39.14.7.42.93.28.23.66.35,1.14.35s.83-.11,1.09-.33c.26-.22.39-.52.39-.89,0-.3-.09-.56-.26-.79-.17-.23-.42-.39-.76-.46l-1.27-.3c-.82-.19-1.47-.56-1.95-1.11-.48-.55-.72-1.2-.72-1.96,0-.93.3-1.67.91-2.2.6-.53,1.43-.8,2.48-.8s1.88.27,2.5.81c.62.54.93,1.26.93,2.18h-2.09c0-.36-.12-.65-.36-.85s-.57-.31-.99-.31-.73.1-.96.3c-.23.2-.34.47-.34.8,0,.54.33.89.99,1.04l1.31.3c.82.18,1.47.57,1.95,1.18.48.6.72,1.33.72,2.18,0,.62-.15,1.16-.44,1.63-.29.47-.7.83-1.24,1.08s-1.17.38-1.91.38Z"/>
  <path class="b" d="M3.48,27.85c-.7,0-1.3-.13-1.83-.39-.52-.26-.93-.63-1.22-1.1-.29-.47-.44-1.02-.44-1.65v-4.43c0-.64.15-1.19.44-1.66s.7-.83,1.22-1.09c.52-.26,1.13-.39,1.83-.39s1.32.13,1.84.39c.52.26.92.63,1.21,1.09s.44,1.02.44,1.66h-2.14c0-.42-.12-.74-.35-.96-.23-.22-.56-.33-.99-.33s-.76.11-.99.33c-.23.22-.35.54-.35.96v4.43c0,.41.12.73.35.95.23.22.56.33.99.33s.76-.11.99-.33c.23-.22.35-.54.35-.95h2.14c0,.63-.15,1.18-.44,1.65-.29.47-.7.84-1.21,1.1-.52.26-1.13.39-1.84.39Z"/>
  <path class="b" d="M14.8,27.85c-1.05,0-1.88-.3-2.5-.89-.62-.59-.93-1.39-.93-2.4v-4.14c0-1.02.31-1.82.93-2.41.62-.59,1.45-.88,2.5-.88s1.88.29,2.5.88c.62.58.93,1.39.93,2.41v4.14c0,1.01-.31,1.81-.93,2.4-.62.59-1.45.89-2.5.89ZM14.8,25.99c.86,0,1.29-.43,1.29-1.28v-4.43c0-.86-.43-1.29-1.29-1.29s-1.29.43-1.29,1.29v4.43c0,.86.43,1.28,1.29,1.28Z"/>
  <path class="b" d="M22.84,27.71v-10.43h3.39c.72,0,1.35.14,1.89.41.54.28.96.66,1.26,1.16s.45,1.09.45,1.76v3.73c0,.67-.15,1.25-.45,1.76s-.72.9-1.26,1.18c-.54.28-1.17.42-1.89.42h-3.39ZM24.98,25.78h1.24c.43,0,.78-.13,1.05-.4.27-.27.41-.61.41-1.03v-3.73c0-.42-.14-.76-.41-1.02-.27-.26-.62-.39-1.05-.39h-1.24v6.57Z"/>
  <path class="b" d="M34.5,27.71v-10.43h6.43v1.86h-4.33v2.34h3.83v1.77h-3.83v2.6h4.33v1.86h-6.43Z"/>
  <path class="b" d="M49.15,24.24l1.47-6.96h1.98v10.43h-1.61v-5.39l-1.2,5.39h-1.3l-1.2-5.39v5.39s-1.6,0-1.6,0v-10.43h1.95l1.52,6.96Z"/>
  <path class="b" d="M56.64,27.71l2.56-10.43h2.71l2.58,10.43h-2.18l-.5-2.36h-2.48l-.5,2.36h-2.18ZM59.68,23.64h1.76l-.5-2.51c-.07-.36-.14-.72-.21-1.08-.07-.36-.13-.63-.16-.83-.04.2-.09.48-.15.83-.06.35-.13.71-.21,1.07l-.53,2.53Z"/>
  <path class="b" d="M71.95,27.85c-.73,0-1.37-.13-1.92-.39s-.97-.62-1.27-1.09c-.3-.47-.45-1.03-.45-1.66h2.09c0,.39.14.7.42.93.28.23.66.35,1.14.35s.83-.11,1.09-.33c.26-.22.39-.52.39-.89,0-.3-.09-.56-.26-.79s-.42-.39-.76-.46l-1.27-.3c-.82-.19-1.47-.56-1.95-1.11-.48-.55-.72-1.2-.72-1.96,0-.93.3-1.67.91-2.2.6-.53,1.43-.8,2.48-.8s1.88.27,2.5.81c.62.54.93,1.26.93,2.18h-2.09c0-.36-.12-.65-.36-.85-.24-.2-.57-.31-.99-.31s-.73.1-.96.3c-.23.2-.34.47-.34.8,0,.54.33.89.99,1.04l1.31.3c.82.18,1.47.57,1.95,1.18s.72,1.33.72,2.18c0,.62-.15,1.16-.44,1.63-.29.47-.71.83-1.24,1.08-.54.25-1.17.38-1.91.38Z"/>
  <path class="b" d="M82.27,27.71v-8.5h-2.64v-1.93h7.43v1.93h-2.64v8.5h-2.14Z"/>
  <path class="b" d="M91.56,27.71v-10.43h6.43v1.86h-4.33v2.34h3.83v1.77h-3.83v2.6h4.33v1.86h-6.43Z"/>
  <path class="b" d="M108.09,27.7l-1.84-4.07h-1.88v4.07h-2.1v-10.42h4.33c1.86,0,3.26,1.15,3.26,3.12,0,1.21-.53,2.06-1.68,2.6l2.14,4.69h-2.23ZM107.76,20.44c0-1.21-.88-1.41-1.88-1.41h-1.51v2.84h1.51c1.01,0,1.88-.23,1.88-1.43Z"/>
</svg>